<svg width="88" height="89" viewBox="0 0 88 89" fill="none" xmlns="http://www.w3.org/2000/svg">
<path d="M23.6547 21.8753C26.7129 24.9282 29.6977 27.9323 32.7315 30.9608C38.2852 26.6623 44.4261 25.7586 51.1542 28.4207C52.5488 25.8807 53.9433 23.3651 55.3379 20.8495C52.2062 16.8197 51.9616 13.3028 54.6284 10.2987C56.9771 7.63656 60.9161 7.02598 63.9743 8.88215C66.9836 10.6895 68.2803 14.5239 67.008 17.8211C65.638 21.3624 62.2617 23.0232 57.9312 22.2417C56.5612 24.7573 55.1666 27.2729 53.7231 29.8617C55.8272 31.3271 57.5643 33.0856 58.9099 35.2348C60.2555 37.3841 61.0629 39.7287 61.4298 42.2931C61.6256 42.3176 61.8458 42.3664 62.0415 42.3664C67.6197 42.171 73.1979 41.9756 78.8005 41.7558C79.0941 41.7314 79.51 41.3651 79.6813 41.0476C80.6844 39.2402 82.6661 38.3122 84.6234 38.8006C86.6785 39.3135 88.0241 41.0231 87.9997 43.148C87.9752 45.1995 86.6296 46.8847 84.6234 47.3976C82.764 47.8616 80.8557 47.0068 79.7547 45.2972C79.5834 45.0285 79.1675 44.7599 78.8739 44.7599C73.2957 44.9309 67.7175 45.1507 62.1149 45.3461C61.9681 45.3461 61.8213 45.3949 61.5766 45.4193C61.3075 49.327 59.9864 52.8196 57.5643 55.7504C60.6469 58.8277 63.6562 61.8317 66.6655 64.8602C73.3936 59.9023 81.4918 62.2225 85.3574 67.4002C89.3698 72.7978 88.7336 80.3201 83.865 84.8873C78.9229 89.5277 71.4119 89.7231 66.2496 85.3269C61.283 81.1017 59.7906 73.3595 64.3168 67.2781C61.283 64.2496 58.2738 61.2456 55.1911 58.1438C50.0043 62.1737 44.0591 63.1994 37.5023 60.8792C37.0375 61.7829 36.5726 62.711 36.1078 63.6146C35.227 65.3487 34.3707 67.1072 33.4655 68.8412C33.1719 69.4029 33.1719 69.7449 33.7101 70.2089C36.646 72.7978 37.4779 76.8765 35.912 80.3934C34.3218 83.9348 30.7742 85.9375 26.7618 85.5467C23.1409 85.2048 20.0582 82.3961 19.2019 78.6594C17.734 72.3093 23.5079 66.7164 29.9669 68.2062C30.0892 68.2306 30.2115 68.2551 30.4562 68.3283C31.9241 65.422 33.3921 62.4912 34.8845 59.5115C31.4348 57.3134 28.9882 54.3582 27.4958 50.4994C26.8597 50.6459 26.2481 50.7924 25.6609 50.9634C21.306 52.1357 16.9511 53.3325 12.5962 54.4803C12.009 54.6269 11.8133 54.8711 11.7154 55.5061C11.3484 58.5102 8.87737 60.6594 5.89254 60.635C3.03005 60.6106 0.583472 58.4613 0.216485 55.6527C-0.174967 52.673 1.5621 50.0353 4.4246 49.2049C6.67545 48.5699 9.09756 49.3515 10.541 51.2565C10.9325 51.7694 11.2505 51.8182 11.8133 51.6717C16.5107 50.3772 21.2326 49.1072 25.93 47.8372C26.1502 47.764 26.3949 47.6907 26.664 47.593C25.8321 42.1955 27.1288 37.4085 30.4562 33.2565C27.398 30.2036 24.3887 27.1996 21.3549 24.1711C14.5534 29.1534 6.50419 26.7355 2.71199 21.7044C-1.32486 16.3801 -0.811077 8.931 3.95975 4.26616C8.73057 -0.398683 16.2171 -0.765031 21.4283 3.3625C26.4438 7.34348 28.4989 15.2566 23.6547 21.8753ZM5.84361 20.9961C10.8346 20.9961 15.6544 20.9961 20.572 20.9961C20.205 16.9662 18.052 14.6216 14.113 13.6935C16.7064 12.6433 17.9542 10.7383 17.5382 8.58907C17.1223 6.48867 15.3853 4.97443 13.3301 4.92558C11.2016 4.87674 9.39115 6.31771 8.9263 8.44253C8.43698 10.6406 9.61134 12.5212 12.3026 13.6935C8.38805 14.6216 6.2106 16.9662 5.84361 20.9961ZM67.3995 82.5426C72.3905 82.5426 77.2103 82.5426 82.079 82.5426C82.03 80.6621 81.4184 79.099 80.2196 77.7313C79.0452 76.388 77.5039 75.6553 75.62 75.289C78.2868 74.1899 79.51 72.3093 79.0941 70.1601C78.6782 68.0352 76.9167 66.521 74.7882 66.4966C72.6596 66.4966 70.8736 67.9864 70.4332 70.1112C69.9929 72.2849 71.1917 74.1655 73.834 75.289C69.9439 76.1682 67.7665 78.5128 67.3995 82.5426ZM35.227 54.7002C41.0988 54.7002 46.9216 54.7002 52.7445 54.7002C52.8424 50.0109 48.8055 45.9811 44.0347 45.9811C39.2149 45.9566 35.1291 49.962 35.227 54.7002ZM43.9857 44.4912C47.2397 44.4912 49.8575 41.8535 49.8575 38.6052C49.8575 35.4058 47.2397 32.7925 44.0591 32.7681C40.8052 32.7437 38.1629 35.3569 38.1384 38.6052C38.114 41.8535 40.7563 44.4912 43.9857 44.4912Z" fill="#FC1B61"/>
</svg>
