<svg width="89" height="88" viewBox="0 0 89 88" fill="none" xmlns="http://www.w3.org/2000/svg">
<path d="M88.333 3.054V60.5107C87.6763 61.6495 86.7085 62.0981 85.3951 62.0636C82.5781 62.0118 79.7784 62.0463 76.9614 62.0463C76.7195 62.0463 76.4775 62.0118 76.201 61.9946C83.7014 52.4012 81.1091 40.4612 74.1963 34.1289C66.8687 27.417 55.9292 26.6751 48.2042 32.3172C44.0047 35.3712 41.205 39.3742 40.0125 44.4297C38.509 50.8828 39.9952 56.7148 44.0738 62.0636C43.6072 62.0636 43.2961 62.0636 42.985 62.0636C29.868 62.0636 16.7682 62.0636 3.65115 62.0636C1.23167 62.0636 0.35029 61.1836 0.35029 58.7335C0.35029 40.306 0.367572 21.8784 0.333008 3.46811C0.333008 1.86346 0.747776 0.690171 2.25131 0C29.9198 0 57.6056 0 85.2741 0C86.9677 0 88.333 1.36309 88.333 3.054ZM44.333 25.9504C54.4948 25.9504 64.6394 25.9504 74.8012 25.9504C75.1468 25.9504 75.4925 25.9677 75.8381 25.9332C77.6182 25.7261 78.6724 23.8799 77.9119 22.2925C77.3416 21.102 76.322 20.7741 75.0604 20.7914C54.6331 20.8086 34.2057 20.7914 13.7784 20.8086C13.5192 20.8086 13.26 20.8086 13.0007 20.8259C11.67 20.9812 10.6849 22.0682 10.6849 23.3795C10.6849 24.6909 11.67 25.7951 13.0007 25.9332C13.3464 25.9677 13.692 25.9504 14.0376 25.9504C24.1476 25.9504 34.2403 25.9504 44.333 25.9504ZM44.5231 15.6496C47.2191 15.6496 49.9151 15.6496 52.6111 15.6496C55.0997 15.6496 57.6056 15.6669 60.0942 15.6324C61.5805 15.6151 62.6692 14.4763 62.6692 13.0615C62.6692 11.6466 61.5805 10.5596 60.0942 10.4906C59.8868 10.4733 59.6967 10.4906 59.4893 10.4906C49.5003 10.4906 39.5286 10.4906 29.5396 10.4906C29.2458 10.4906 28.9693 10.4733 28.6755 10.5078C27.6559 10.6459 26.9127 11.1808 26.5325 12.147C25.8585 13.8897 27.1201 15.6324 29.1076 15.6324C34.2403 15.6496 39.3731 15.6324 44.5231 15.6496ZM26.4461 31.1094C22.1429 31.1094 17.8397 31.1094 13.5365 31.1094C12.2057 31.1094 11.2898 31.6961 10.875 32.7658C10.201 34.543 11.4799 36.2685 13.5365 36.2685C20.311 36.2857 27.0856 36.2685 33.8428 36.2685C35.6747 36.2685 37.5239 36.2857 39.3558 36.2685C40.531 36.2512 41.4469 35.6301 41.8444 34.6121C42.5184 32.8694 41.2568 31.1267 39.2694 31.1094C34.9834 31.0922 30.7148 31.1094 26.4461 31.1094ZM23.7674 41.4275C20.3456 41.4275 16.941 41.4275 13.5192 41.4275C12.3094 41.4275 11.3935 41.8934 10.8923 43.0149C10.1492 44.723 11.3935 46.5693 13.3464 46.5865C16.6818 46.621 19.9999 46.6038 23.3354 46.6038C26.8955 46.6038 30.4556 46.6038 34.0156 46.6038C35.2254 46.6038 36.1413 46.1379 36.6425 45.0164C37.4202 43.2737 36.1241 41.462 34.1021 41.4447C30.6629 41.4102 27.2065 41.4275 23.7674 41.4275Z" fill="#FC1B61"/>
<path d="M60.0768 33.6977C68.5796 33.6804 75.5788 40.6339 75.5961 49.1402C75.6133 57.6293 68.6487 64.6173 60.1287 64.6346C51.6259 64.6518 44.6267 57.6983 44.6094 49.192C44.5921 40.6856 51.5395 33.7149 60.0768 33.6977ZM67.8364 49.1402C67.8191 44.9302 64.3109 41.4276 60.0941 41.4276C55.8773 41.4276 52.369 44.9129 52.3517 49.123C52.3172 53.3503 55.9118 56.9219 60.1287 56.8701C64.3627 56.8529 67.8537 53.333 67.8364 49.1402Z" fill="#FC1B61"/>
<path d="M73.0039 65.2383C73.0039 65.5834 73.0039 65.825 73.0039 66.0838C73.0039 72.3471 73.0212 78.6276 72.9866 84.8909C72.9866 85.5466 72.8484 86.2885 72.52 86.8407C71.6386 88.3073 69.7894 88.3763 68.4587 87.0822C66.5231 85.1843 64.6048 83.2345 62.6693 81.3193C61.8397 80.4911 61.0102 79.6629 60.1288 78.7657C59.8523 79.0245 59.6276 79.2315 59.4202 79.4386C56.8971 81.9404 54.3912 84.4596 51.868 86.9614C51.1422 87.6861 50.3299 88.152 49.2584 87.9104C47.9104 87.5998 47.1846 86.6164 47.1846 85.0462C47.1846 78.7829 47.1846 72.5024 47.1846 66.2391C47.1846 65.9285 47.1846 65.6179 47.1846 65.2211C55.791 71.3118 64.3283 71.3291 73.0039 65.2383Z" fill="#FC1B61"/>
<path d="M60.2151 46.5865C61.615 46.6555 62.7383 47.8806 62.6692 49.2782C62.6001 50.6758 61.373 51.7973 59.9732 51.7283C58.5733 51.6593 57.45 50.4342 57.5191 49.0366C57.5883 47.639 58.8153 46.5175 60.2151 46.5865Z" fill="#FC1B61"/>
</svg>
