<svg width="89" height="89" viewBox="0 0 89 89" fill="none" xmlns="http://www.w3.org/2000/svg">
<path d="M23.2999 88.4771C21.8827 88.4771 20.7339 87.3283 20.7339 85.9111C20.7339 85.8864 20.7339 85.8617 20.7339 85.8369C20.7339 84.4608 21.8495 83.3451 23.2257 83.3451C24.6018 83.3451 25.7174 82.2295 25.7174 80.8533C25.7174 79.5338 25.7174 78.2199 25.7174 76.9072C25.7174 73.3517 28.5998 70.4693 32.1554 70.4693C33.3519 70.4693 34.5482 70.4693 35.7458 70.4693C39.2761 70.4693 42.1379 73.3311 42.1379 76.8614C42.1379 77.8302 42.1379 78.8009 42.1379 79.7741C42.1379 81.6957 43.7043 83.2535 45.6259 83.2535C47.5474 83.2535 49.0966 81.6957 49.0966 79.7742C49.0966 76.163 49.0966 72.5457 49.0966 68.9197C49.0966 64.3726 52.7827 60.6864 57.3298 60.6864C61.8769 60.6864 65.563 64.3726 65.563 68.9196C65.563 72.59 65.563 76.265 65.563 79.9578C65.563 81.7906 67.0574 83.2764 68.8901 83.2764C70.7229 83.2764 72.2001 81.7906 72.2001 79.9578C72.2001 71.2326 72.2001 62.5265 72.2001 53.7242C72.2001 53.1281 72.6833 52.6448 73.2795 52.6448C78.0563 52.6448 82.8562 52.6448 87.633 52.6448C88.1805 52.6448 88.6435 53.0417 88.6435 53.5892C88.6435 61.8813 88.6435 70.1841 88.6435 78.4899C88.6435 84.0167 84.1602 88.4954 78.6334 88.4913C60.1825 88.4777 41.7339 88.4771 23.2999 88.4771Z" fill="#FC1B61"/>
<path d="M58.2032 31.9396C58.1974 31.9367 58.1906 31.9407 58.1903 31.9471C58.0279 35.2871 57.1785 38.467 55.7107 41.3956C50.1071 52.5531 41.0126 58.3037 28.4963 58.1662C15.1991 58.0288 3.3718 47.696 1.12116 34.614C-1.49693 19.5388 7.41377 5.44871 22.1348 1.48516C22.663 1.3477 23.1683 1.23314 23.7194 1.11859C25.9701 0.683286 28.2666 0.5 30.5632 0.5C31.0851 0.5 31.6069 0.544723 32.1288 0.63417C32.1415 0.636348 32.1511 0.637258 32.164 0.637647C32.2143 0.639164 32.2674 0.663691 32.3173 0.669821C43.2773 2.01605 51.1287 7.71739 55.8714 17.6601C57.2472 20.5422 58.0506 23.5841 58.2132 26.8088C58.2135 26.8148 58.2208 26.8176 58.225 26.8133C58.2294 26.809 58.2263 26.8015 58.2201 26.8015C56.4103 26.8015 54.6005 26.8015 52.763 26.8015C51.6349 26.8015 50.6909 25.9677 50.4491 24.8658C49.9633 22.6531 49.1819 20.5571 48.0401 18.5994C46.5703 16.0793 44.6642 13.9257 42.3217 12.1615C39.9792 10.4203 37.384 9.18315 34.5363 8.51874C31.6885 7.83142 28.8178 7.7856 25.9241 8.24381C16.0489 9.82465 8.42426 18.714 8.24053 28.8634C8.05681 39.3107 15.3829 48.2688 25.8323 50.2391C30.7929 51.1785 35.5468 50.3766 39.9332 47.8793C45.7681 44.5593 49.244 39.596 50.5716 33.1804C50.7168 32.4784 51.3233 31.9564 52.0402 31.9564C54.1197 31.9564 56.1596 31.9564 58.1992 31.9564C58.2086 31.9564 58.2116 31.9437 58.2032 31.9396Z" fill="#FC1B61"/>
<path d="M58.2173 26.7833C58.2048 26.7889 58.2144 26.8015 58.228 26.8015C60.8795 26.8017 63.5084 26.8241 66.16 26.7557C66.6193 26.7557 67.1705 26.5266 67.492 26.2058C69.5819 24.1897 71.6488 22.1048 73.6928 20.0428C74.1291 19.5846 74.5884 19.4242 75.2085 19.4242C79.3424 19.4471 83.4991 19.4471 87.633 19.4242C88.2044 19.4242 88.6664 19.8417 88.6664 20.4131C88.6664 21.4933 88.6664 22.5734 88.6664 23.6536C88.6664 24.6654 88.3075 25.6443 87.6535 26.4162C87.6358 26.4372 87.618 26.4581 87.6003 26.4791C86.2138 28.1157 86.1854 30.505 87.5127 32.19C87.6064 32.3089 87.6999 32.4276 87.7932 32.5461C88.358 33.2627 88.6664 34.1483 88.6664 35.0607C88.6664 37.3124 86.8287 39.1277 84.577 39.1132C83.7406 39.1078 82.9063 39.1045 82.0753 39.1045C79.7557 39.1045 77.4362 39.1274 75.1167 39.0816C74.6573 39.0816 74.1062 38.8525 73.7846 38.5318C71.7177 36.5385 69.7197 34.5224 67.7217 32.4833C67.3313 32.0709 66.9179 31.9335 66.3667 31.9335C63.6622 31.9563 60.9348 31.9336 58.2301 31.9335C58.2241 31.9335 58.2211 31.9407 58.2254 31.945C58.2296 31.9492 58.2368 31.9462 58.2368 31.9402C58.2368 30.2323 58.2368 28.5018 58.2368 26.7939C58.2368 26.7854 58.225 26.7798 58.2173 26.7833Z" fill="#FC1B61"/>
<path d="M43.228 20.6369C45.1015 23.6076 42.388 26.8303 38.8767 26.7557C38.624 26.7557 38.2795 26.3892 38.1877 26.1142C36.7408 22.4027 33.3419 20.0429 29.4377 20.0887C24.8446 20.1574 21.0782 23.5482 20.4352 28.1991C19.8381 32.4834 22.7317 36.8364 27.0034 38.0736C31.3898 39.3337 36.0519 37.1801 37.9121 32.9874C38.1616 32.3653 38.7767 31.9794 39.4471 31.9794C39.9388 31.9794 40.4304 31.9794 40.9216 31.9794C43.3256 31.9794 45.1889 34.1054 44.1479 36.2723C41.8879 40.9767 36.8188 45.463 29.4837 45.4279C20.6189 45.3821 13.4536 38.234 13.3617 29.4363C13.2699 20.6386 20.2974 13.2842 29.1162 13.101C35.6588 12.9444 40.5507 16.3915 43.228 20.6369Z" fill="#FC1B61"/>
<path d="M29.5297 25.2436C31.7574 25.2207 33.5946 27.0536 33.5946 29.2759C33.5946 31.4524 31.7804 33.2624 29.5986 33.2853C27.3939 33.3082 25.5566 31.4753 25.5566 29.253C25.5566 27.0536 27.325 25.2665 29.5297 25.2436Z" fill="#FC1B61"/>
</svg>
